<?xml version="1.0" encoding="utf-8"?>
<!-- Generator: Adobe Illustrator 16.0.0, SVG Export Plug-In . SVG Version: 6.00 Build 0)  -->
<!DOCTYPE svg PUBLIC "-//W3C//DTD SVG 1.1//EN" "http://www.w3.org/Graphics/SVG/1.1/DTD/svg11.dtd">
<svg version="1.1" id="레이어_1" xmlns="http://www.w3.org/2000/svg" xmlns:xlink="http://www.w3.org/1999/xlink" x="0px"
	 y="0px" width="1349px" height="2114px" viewBox="0 0 1349 2114" enable-background="new 0 0 1349 2114" xml:space="preserve">
<linearGradient id="SVGID_1_" gradientUnits="userSpaceOnUse" x1="-520.1667" y1="-1603.5042" x2="355.0496" y2="-879.6837" gradientTransform="matrix(1 0 0 1 229.2998 2180.1992)">
	<stop  offset="0" style="stop-color:#F7F8F8"/>
	<stop  offset="0.0376" style="stop-color:#EFF3F6"/>
	<stop  offset="0.5376" style="stop-color:#7FB7DC;stop-opacity:0.9"/>
	<stop  offset="1" style="stop-color:#187FC4;stop-opacity:0"/>
</linearGradient>
<path opacity="0.4" fill="url(#SVGID_1_)" d="M1321,1971.33V561.777c-48.098-33.321-99.566-61.633-154.03-84.667
	c-105.978-44.825-218.257-67.55-333.731-67.55c-47.006,0-94.419,5.8-158.537,19.394c-42.582,9.031-77.869,18.237-104.85,27.356
	c-4.219,1.425-8.538,2.688-12.825,3.75c-11.8,2.918-23.825,4.4-35.744,4.4c-51.256,0-100.119-26.727-127.513-69.758L160.294,28
	H-28.065v2114h252.104l19.515-12.621c14.582-9.438,28.313-18.438,41.594-27.148c33.9-22.227,63.175-41.426,86.419-54.463
	c13.36-7.495,20.091-10.319,22.455-11.213c0.664-0.038,1.67-0.074,3.057-0.074c9.181,0,43.167,1.805,113.166,23.729
	c105.611,42.613,208.779,63.377,314.522,63.377c2.912,0,5.618-0.02,8.112-0.03l1.131-0.007h-0.771
	c115.469,0,227.75-22.726,333.727-67.551C1221.43,2032.963,1272.902,2004.65,1321,1971.33z M833.239,1623.552
	c-19.601,0-68.903,2.437-149.55-32.75h-0.011C306.782,1465.848,175.229,1578.093-28,1709.541V663.24
	c147.776,232.103,430.986,350,705.1,282.19c17.66-4.37,35.291-9.509,52.841-15.44c13.369-4.519,81.47-20.43,103.3-20.43
	c197.159,0.001,356.999,159.831,356.999,357.001C1190.239,1463.721,1030.399,1623.552,833.239,1623.552z"/>
<linearGradient id="SVGID_2_" gradientUnits="userSpaceOnUse" x1="-468.1663" y1="-1703.5042" x2="407.0494" y2="-979.6843" gradientTransform="matrix(1 0 0 1 229.2998 2180.1992)">
	<stop  offset="0" style="stop-color:#F7F8F8"/>
	<stop  offset="0.0376" style="stop-color:#EFF3F6"/>
	<stop  offset="0.5376" style="stop-color:#7FB7DC;stop-opacity:0.9"/>
	<stop  offset="1" style="stop-color:#187FC4;stop-opacity:0"/>
</linearGradient>
<path opacity="0.4" fill="url(#SVGID_2_)" d="M1373,1871.33V461.777c-48.098-33.321-99.566-61.633-154.03-84.667
	c-105.978-44.825-218.257-67.55-333.731-67.55c-47.006,0-94.419,5.8-158.537,19.394c-42.582,9.031-77.869,18.237-104.85,27.356
	c-4.219,1.425-8.538,2.688-12.825,3.75c-11.8,2.918-23.825,4.4-35.744,4.4c-51.256,0-100.119-26.727-127.513-69.758L212.294-72
	H23.935v2114h252.104l19.515-12.621c14.582-9.438,28.313-18.438,41.594-27.148c33.9-22.227,63.175-41.426,86.419-54.463
	c13.36-7.495,20.091-10.319,22.455-11.213c0.664-0.038,1.67-0.074,3.057-0.074c9.181,0,43.167,1.805,113.166,23.729
	c105.611,42.613,208.779,63.377,314.522,63.377c2.912,0,5.618-0.02,8.112-0.03l1.131-0.007h-0.771
	c115.469,0,227.75-22.726,333.727-67.551C1273.43,1932.963,1324.902,1904.65,1373,1871.33z M885.239,1523.552
	c-19.601,0-68.903,2.437-149.55-32.75h-0.011C358.782,1365.848,227.229,1478.093,24,1609.541V563.24
	c147.776,232.103,430.986,350,705.1,282.19c17.66-4.37,35.291-9.509,52.841-15.44c13.369-4.519,81.47-20.43,103.3-20.43
	c197.159,0.001,356.999,159.831,356.999,357.001C1242.239,1363.721,1082.399,1523.552,885.239,1523.552z"/>
<linearGradient id="SVGID_3_" gradientUnits="userSpaceOnUse" x1="-416.1663" y1="-1803.5037" x2="459.0494" y2="-1079.6838" gradientTransform="matrix(1 0 0 1 229.2998 2180.1992)">
	<stop  offset="0" style="stop-color:#F7F8F8"/>
	<stop  offset="0.0376" style="stop-color:#EFF3F6"/>
	<stop  offset="0.5376" style="stop-color:#7FB7DC;stop-opacity:0.9"/>
	<stop  offset="1" style="stop-color:#187FC4;stop-opacity:0"/>
</linearGradient>
<path opacity="0.4" fill="url(#SVGID_3_)" d="M1425,1771.33V361.777c-48.098-33.321-99.566-61.633-154.03-84.667
	c-105.978-44.825-218.257-67.55-333.731-67.55c-47.006,0-94.419,5.8-158.537,19.394c-42.582,9.031-77.869,18.237-104.85,27.356
	c-4.219,1.425-8.538,2.688-12.825,3.75c-11.8,2.918-23.825,4.4-35.744,4.4c-51.256,0-100.119-26.727-127.513-69.758L264.294-172
	H75.935v2114h252.104l19.515-12.621c14.582-9.438,28.313-18.438,41.594-27.148c33.9-22.227,63.175-41.426,86.419-54.463
	c13.36-7.495,20.091-10.319,22.455-11.213c0.664-0.038,1.67-0.074,3.057-0.074c9.181,0,43.167,1.805,113.166,23.729
	c105.611,42.613,208.779,63.377,314.522,63.377c2.912,0,5.618-0.02,8.112-0.03l1.131-0.007h-0.771
	c115.469,0,227.75-22.726,333.727-67.551C1325.43,1832.963,1376.902,1804.65,1425,1771.33z M937.239,1423.552
	c-19.601,0-68.903,2.437-149.55-32.75h-0.011C410.782,1265.848,279.229,1378.093,76,1509.541V463.24
	c147.776,232.103,430.986,350,705.1,282.19c17.66-4.37,35.291-9.509,52.841-15.44c13.369-4.519,81.47-20.43,103.3-20.43
	c197.159,0.001,356.999,159.831,356.999,357.001C1294.239,1263.721,1134.399,1423.552,937.239,1423.552z"/>
<linearGradient id="SVGID_4_" gradientUnits="userSpaceOnUse" x1="-364.1667" y1="-1903.5037" x2="511.0489" y2="-1179.6838" gradientTransform="matrix(1 0 0 1 229.2998 2180.1992)">
	<stop  offset="0" style="stop-color:#F7F8F8"/>
	<stop  offset="0.0376" style="stop-color:#EFF3F6"/>
	<stop  offset="0.5376" style="stop-color:#7FB7DC;stop-opacity:0.9"/>
	<stop  offset="1" style="stop-color:#187FC4;stop-opacity:0"/>
</linearGradient>
<path opacity="0.4" fill="url(#SVGID_4_)" d="M1477,1671.33V261.777c-48.098-33.321-99.566-61.633-154.03-84.667
	c-105.978-44.825-218.257-67.55-333.731-67.55c-47.006,0-94.419,5.8-158.537,19.394c-42.582,9.031-77.869,18.237-104.85,27.356
	c-4.219,1.425-8.538,2.688-12.825,3.75c-11.8,2.918-23.825,4.4-35.744,4.4c-51.256,0-100.119-26.727-127.513-69.758L316.294-272
	H127.935v2114h252.104l19.515-12.621c14.582-9.438,28.313-18.438,41.594-27.148c33.9-22.227,63.175-41.426,86.419-54.463
	c13.36-7.495,20.091-10.319,22.455-11.213c0.664-0.038,1.67-0.074,3.057-0.074c9.181,0,43.167,1.805,113.166,23.729
	c105.611,42.613,208.779,63.377,314.522,63.377c2.912,0,5.618-0.02,8.112-0.03l1.131-0.007h-0.771
	c115.469,0,227.75-22.726,333.727-67.551C1377.43,1732.963,1428.902,1704.65,1477,1671.33z M989.239,1323.552
	c-19.601,0-68.903,2.437-149.55-32.75h-0.011C462.782,1165.848,331.229,1278.093,128,1409.541V363.24
	c147.776,232.103,430.986,350,705.1,282.19c17.66-4.37,35.291-9.509,52.841-15.44c13.369-4.519,81.47-20.43,103.3-20.43
	c197.159,0.001,356.999,159.831,356.999,357.001C1346.239,1163.721,1186.399,1323.552,989.239,1323.552z"/>
<linearGradient id="SVGID_5_" gradientUnits="userSpaceOnUse" x1="-312.1672" y1="-2003.5046" x2="563.0491" y2="-1279.6842" gradientTransform="matrix(1 0 0 1 229.2998 2180.1992)">
	<stop  offset="0" style="stop-color:#F7F8F8"/>
	<stop  offset="0.0376" style="stop-color:#EFF3F6"/>
	<stop  offset="0.5376" style="stop-color:#7FB7DC;stop-opacity:0.9"/>
	<stop  offset="1" style="stop-color:#187FC4;stop-opacity:0"/>
</linearGradient>
<path opacity="0.4" fill="url(#SVGID_5_)" d="M1529,1571.33V161.777c-48.098-33.321-99.566-61.633-154.03-84.667
	c-105.978-44.825-218.257-67.55-333.731-67.55c-47.006,0-94.419,5.8-158.537,19.394c-42.582,9.031-77.869,18.237-104.85,27.356
	c-4.219,1.425-8.538,2.688-12.825,3.75c-11.8,2.918-23.825,4.4-35.744,4.4c-51.256,0-100.119-26.727-127.513-69.758L368.294-372
	H179.935v2114h252.104l19.515-12.621c14.582-9.438,28.313-18.438,41.594-27.148c33.9-22.227,63.175-41.426,86.419-54.463
	c13.36-7.495,20.091-10.319,22.455-11.213c0.664-0.038,1.67-0.074,3.057-0.074c9.181,0,43.167,1.805,113.166,23.729
	c105.611,42.613,208.779,63.377,314.522,63.377c2.912,0,5.618-0.02,8.112-0.03l1.131-0.007h-0.771
	c115.469,0,227.75-22.726,333.727-67.551C1429.43,1632.963,1480.902,1604.65,1529,1571.33z M1041.239,1223.552
	c-19.601,0-68.903,2.437-149.55-32.75h-0.011C514.782,1065.848,383.229,1178.093,180,1309.541V263.24
	c147.776,232.103,430.986,350,705.1,282.19c17.66-4.37,35.291-9.509,52.841-15.44c13.369-4.519,81.47-20.43,103.3-20.43
	c197.159,0.001,356.999,159.831,356.999,357.001C1398.239,1063.721,1238.399,1223.552,1041.239,1223.552z"/>
<linearGradient id="SVGID_6_" gradientUnits="userSpaceOnUse" x1="-260.1663" y1="-2103.5037" x2="615.0494" y2="-1379.6838" gradientTransform="matrix(1 0 0 1 229.2998 2180.1992)">
	<stop  offset="0" style="stop-color:#F7F8F8"/>
	<stop  offset="0.0376" style="stop-color:#EFF3F6"/>
	<stop  offset="0.5376" style="stop-color:#7FB7DC;stop-opacity:0.9"/>
	<stop  offset="1" style="stop-color:#187FC4;stop-opacity:0"/>
</linearGradient>
<path opacity="0.4" fill="url(#SVGID_6_)" d="M1581,1471.33V61.777c-48.098-33.321-99.566-61.633-154.03-84.667
	c-105.978-44.825-218.257-67.55-333.731-67.55c-47.006,0-94.419,5.8-158.537,19.394c-42.582,9.031-77.869,18.237-104.85,27.356
	c-4.219,1.425-8.538,2.688-12.825,3.75c-11.8,2.918-23.825,4.4-35.744,4.4c-51.256,0-100.119-26.727-127.513-69.758L420.294-472
	H231.935v2114h252.104l19.515-12.621c14.582-9.438,28.313-18.438,41.594-27.148c33.9-22.227,63.175-41.426,86.419-54.463
	c13.36-7.495,20.091-10.319,22.455-11.213c0.664-0.038,1.67-0.074,3.057-0.074c9.181,0,43.167,1.805,113.166,23.729
	c105.611,42.613,208.779,63.377,314.522,63.377c2.912,0,5.618-0.02,8.112-0.03l1.131-0.007h-0.771
	c115.469,0,227.75-22.726,333.727-67.551C1481.43,1532.963,1532.902,1504.65,1581,1471.33z M1093.239,1123.552
	c-19.601,0-68.903,2.437-149.55-32.75h-0.011C566.782,965.848,435.229,1078.093,232,1209.541V163.24
	c147.776,232.103,430.986,350,705.1,282.19c17.66-4.37,35.291-9.509,52.841-15.44c13.369-4.519,81.47-20.43,103.3-20.43
	c197.159,0.001,356.999,159.831,356.999,357.001C1450.239,963.721,1290.399,1123.552,1093.239,1123.552z"/>
</svg>
